<?xml version="1.0" encoding="UTF-8" standalone="no"?>
<!-- Created with Inkscape (http://www.inkscape.org/) -->

<svg
        width="160"
        height="44"
        viewBox="0 0 87.050605 89.906692"
        version="1.1"
        id="svg1"
        xml:space="preserve"
        xmlns="http://www.w3.org/2000/svg"
><defs
     id="defs1" /><g
        id="layer1"
        transform="translate(-57.474801,-100.12107)"><g
       id="g3"><g
         id="g2"><g
           id="layer1-5"
           transform="translate(47.708451,1.1916817)"><g
             id="g1"><rect
               width="86.684967"
               height="89.529579"
               rx="2.5395985%"
               fill="#ff3034"
               id="rect1-3"
               x="9.3290558"
               y="99.361237"
               transform="matrix(0.99998945,-0.00459372,0.00430644,0.99999073,0,0)"
               style="display:inline;stroke:#ffffff;stroke-width:0;stroke-dasharray:none;stroke-opacity:1" /></g><g
        id="g6"
        style="display:inline"
        transform="matrix(0.07883243,-0.0720055,0.0720055,0.07883243,83.608026,149.7932)"><g
               id="g7"><path
                 id="rect8"
                 style="fill:#ffffff;stroke:#ffffff;stroke-width:13.4668;stroke-opacity:1"
                 d="m -575.57093,-219.64652 165.78152,151.596926 147.09992,134.51333 59.61253,-54.5607 47.15588,-62.28915 -139.0522,-125.171576 -173.52864,-161.21055 z" /><ellipse
        style="fill:#ffffff;fill-opacity:1;stroke:#ffffff;stroke-width:11.0009;stroke-dasharray:none;stroke-opacity:1"
        id="path12"
        cx="-46.650833"
        cy="146.75139"
        transform="rotate(42.408559)"
        rx="51.858631"
        ry="52.438278" /><path
        id="path1"
        style="fill:#ffffff;stroke:#ffffff;stroke-width:14.3561;stroke-opacity:1"
        d="M -421.79023,-387.34563 -199.76929,-184.40571 -2.767573,-4.335163 50.441109,-48.256511 87.861487,-103.50147 -97.878431,-271.59568 -330.89206,-486.72994 Z" /><path
        id="path2"
        style="fill:#ffffff;stroke:#ffffff;stroke-width:14.3561;stroke-opacity:1"
        d="m -286.73898,-535.20125 222.020939,202.93992 197.001701,180.07055 53.20869,-43.92135 37.42038,-55.24496 L 37.172822,-419.4513 -195.84081,-634.58556 Z" /><path
        id="path6"
        style="fill:#ffffff;stroke:#ffffff;stroke-width:13.3067;stroke-opacity:1"
        d="m -218.72746,-609.99159 -173.01537,189.25796 -153.51818,167.93078 45.27707,52.51587 54.66798,38.81703 143.16545,-158.46099 183.59322,-198.46247 z" /></g></g></g></g></g></g></svg>
