<svg xmlns="http://www.w3.org/2000/svg" width="160" height="44">
    <path d="M0 0v44h160V0H0zm123.56 4.664h3.4a4.43 4.43 0 0 1 4.43 4.441v9.33a1.73 1.73 0 0 0 1.719 1.729h.44a1.82 1.82 0 0 1 1.82 1.82v.03a1.82 1.82 0 0 1-1.82 1.82h-.44a1.73 1.73 0 0 0-1.719 1.729v9.33a4.43 4.43 0 0 1-4.43 4.441h-3.4a1.7 1.7 0 0 1-.01-3.41h1.068a1.73 1.73 0 0 0 1.73-1.73v-8.45a3.65 3.65 0 0 1 3.1-3.609 5.38 5.38 0 0 1 .9-.09v-.08a5.38 5.38 0 0 1-.9-.09 3.65 3.65 0 0 1-3.1-3.609v-8.46a1.73 1.73 0 0 0-1.73-1.73h-1.068a1.7 1.7 0 0 1-.83-.219 1.7 1.7 0 0 1 .84-3.191zm-38.734.342a2.54 2.54 0 0 1 2.613 2.539v14.12c.01.16 0 .3 0 .48v7.38a2.54 2.54 0 0 1-4.809 1.139 9.87 9.87 0 1 1-.271-17.119v-6a2.54 2.54 0 0 1 2.467-2.539zm9.145 0a2.54 2.54 0 1 1 0 5.08 2.54 2.54 0 1 1 0-5.08zm-59.73 7.3a9.87 9.87 0 0 1 9.869 9.871v7.35a2.54 2.54 0 0 1-4.809 1.139 9.87 9.87 0 1 1-5.061-18.359zm21.78 0a9.87 9.87 0 0 1 9.811 9.871v7.35a2.54 2.54 0 0 1-4.811 1.139 9.87 9.87 0 1 1-5-18.359zm38 0a2.54 2.54 0 0 1 2.541 2.541v14.67a2.54 2.54 0 1 1-5.08 0v-14.67a2.54 2.54 0 0 1 2.539-2.541zm9.242.012a2.54 2.54 0 0 1 2.658 2.219 7.79 7.79 0 0 1 4.84-1.68 7.83 7.83 0 0 1 7.83 7.809v8.852a2.54 2.54 0 0 1-5.08 0v-7.72a3.785 3.785 0 1 0-7.57 0v7.72a2.54 2.54 0 0 1-5.08 0v-14.67a2.54 2.54 0 0 1 2.402-2.529zm-81.668.04a2.54 2.54 0 0 1 2.426 2.469 2.53 2.53 0 0 1-.311 1.102l-7 14.66a2.54 2.54 0 0 1-4.619-.051l-7-14.61-.07-.16v-1.6l.13-.17v-.06l.07-.17v-.06l.12-.15v-.07l.1-.13.07-.08.1-.11.07-.08.1-.102.08-.068.11-.1.08-.06.13-.11h.07l.21-.01.18-.068h.07l.17-.05H8.4l.15.06h.08l.13.068h.1l.06.08.1.08.13.06.11.1.07.07.1.11.1.08.08.11.07.1.06.1.07.13v.05l4.71 9.86 4.71-9.86a2.54 2.54 0 0 1 2.373-1.379zm117.82.305a2.28 2.28 0 0 1 1.086.305l13.19 7.17h.08a2 2 0 0 1 1.201 1.859l.01.08a2 2 0 0 1-1.23 1.871h-.06l-13.19 7.13a2.28 2.28 0 0 1-3.42-2 2.23 2.23 0 0 1 1.57-2.17l9.1-4.88-9.11-4.89a2.23 2.23 0 0 1-1.561-2.17 2.28 2.28 0 0 1 2.334-2.305zM34.063 17.408a4.77 4.77 0 1 0 4.957 4.768 4.77 4.77 0 0 0-4.957-4.768zm21.76 0a4.77 4.77 0 1 0 4.967 4.768 4.77 4.77 0 0 0-4.967-4.768zm21.56.02a4.77 4.77 0 0 0 .199 9.535l.01-.02a4.77 4.77 0 0 0 4.76-4.75 4.77 4.77 0 0 0-4.969-4.766z"
          fill="#fff"/>
</svg>