<!DOCTYPE svg PUBLIC "-//W3C//DTD SVG 1.1//EN" "http://www.w3.org/Graphics/SVG/1.1/DTD/svg11.dtd">
<!-- Uploaded to: SVG Repo, www.svgrepo.com, Transformed by: SVG Repo Mixer Tools -->
<svg fill="#cccccc" width="800px" height="800px" viewBox="-7.5 0 32 32" version="1.1" xmlns="http://www.w3.org/2000/svg" stroke="#cccccc">
<g id="SVGRepo_bgCarrier" stroke-width="0"/>
<g id="SVGRepo_tracerCarrier" stroke-linecap="round" stroke-linejoin="round"/>
<g id="SVGRepo_iconCarrier"> <title>unlock</title> <path d="M14.625 15.156h2.094c0.281 0 0.5 0.25 0.5 0.531v11c0 0.281-0.219 0.5-0.5 0.5h-16.219c-0.281 0-0.5-0.219-0.5-0.5v-11c0-0.281 0.219-0.531 0.5-0.531h11.5v-4.875c0-1.594-1.313-2.938-2.938-2.938h-0.969c-1.594 0-2.906 1.344-2.906 2.938v1.844h-2.656v-2.094c0-2.875 1.844-5.25 4.688-5.25h2.688c2.875 0 4.719 2.375 4.719 5.25v5.125zM7.125 24h2.938l-0.719-3.156c0.5-0.25 0.844-0.781 0.844-1.375 0-0.906-0.719-1.594-1.594-1.594s-1.563 0.688-1.563 1.594c0 0.594 0.344 1.125 0.844 1.375z"/> </g>
</svg>